<svg width="17" height="15" viewBox="0 0 17 15" fill="none" xmlns="http://www.w3.org/2000/svg">
<path d="M12.0418 0H10.2712C10.2712 0.976637 9.47637 1.77092 8.5 1.77092C7.52363 1.77092 6.72934 0.976637 6.72934 0H4.95842L0 2.83342L1.41684 6.72934L3.54184 6.02092V14.1671H13.4587V6.02092L15.5837 6.72934L17 2.83342L12.0418 0ZM15.1531 5.83933L12.75 5.03808V13.4585H4.25V5.03808L1.84692 5.83937L0.869756 3.15224L5.14648 0.708422H6.12365C6.42846 1.73254 7.37707 2.47934 8.5 2.47934C9.6232 2.47934 10.5716 1.73254 10.8761 0.708422H11.8535L16.1305 3.15224L15.1531 5.83933Z" fill="black"/>
</svg>
