<svg width="15" height="19" viewBox="0 0 15 19" fill="none" xmlns="http://www.w3.org/2000/svg">
<path d="M11.0142 3.23515C10.359 1.29645 9.04631 0 7.49965 0C5.95298 0 4.64034 1.29645 3.98508 3.23515H0V18.2348H15V3.23515H11.0142ZM7.5 1.16343C8.4185 1.16343 9.24972 1.99043 9.76351 3.2348H5.23649C5.74993 1.99078 6.5815 1.16343 7.5 1.16343ZM13.5776 16.8124H1.42244V4.65724H3.64478C3.5758 5.11402 3.53815 5.59157 3.53815 6.0853H4.70193C4.70193 5.59122 4.74627 5.1112 4.82721 4.65724H10.1724C10.2537 5.1112 10.2977 5.59122 10.2977 6.0853H11.4615C11.4615 5.59157 11.4238 5.11402 11.3549 4.65724H13.5772V16.8124H13.5776Z" fill="white"/>
</svg>
