<svg width="15" height="14" viewBox="0 0 15 14" fill="none" xmlns="http://www.w3.org/2000/svg">
<path d="M12.7896 13.6181H2.21092C2.10229 13.6181 2.00865 13.5408 1.98774 13.434L0.00410347 3.11993C-0.0195329 2.99675 0.0613762 2.87765 0.184103 2.85356C0.305467 2.83175 0.427285 2.91038 0.450467 3.03402L2.3991 13.1636H12.6018L14.5496 3.03402C14.5732 2.91084 14.69 2.83084 14.8159 2.85402C14.9391 2.87811 15.0196 2.99675 14.9959 3.12038L13.0127 13.434C12.9918 13.5408 12.8982 13.6181 12.7896 13.6181Z" fill="black"/>
<path d="M10.9389 5.83313C10.0225 5.83313 9.56026 5.58858 9.11299 5.35222C8.69617 5.13222 8.30299 4.92404 7.4989 4.92404C6.69572 4.92404 6.30208 5.13222 5.88572 5.35222C5.67936 5.46131 5.46526 5.57449 5.20117 5.66404C4.8589 5.77949 4.49663 5.83313 4.06117 5.83313C3.14481 5.83313 2.68299 5.58858 2.23572 5.35222C1.81936 5.13222 1.42572 4.92404 0.622538 4.92404C0.497083 4.92404 0.395265 4.82222 0.395265 4.69676C0.395265 4.57131 0.497083 4.46949 0.622538 4.46949C1.5389 4.46949 2.00072 4.71404 2.44799 4.9504C2.86436 5.1704 3.25799 5.37858 4.06117 5.37858C4.44572 5.37858 4.76163 5.33222 5.05572 5.23358C5.28526 5.15586 5.4739 5.05631 5.67299 4.95085C6.12026 4.71404 6.58254 4.46949 7.4989 4.46949C8.41572 4.46949 8.87799 4.71404 9.32526 4.9504C9.74208 5.1704 10.1353 5.37858 10.9389 5.37858C11.0534 5.37858 11.1598 5.37449 11.2594 5.36676C11.8553 5.31949 12.1939 5.1404 12.5525 4.9504C12.9998 4.71404 13.4625 4.46949 14.3794 4.46949C14.5048 4.46949 14.6066 4.57131 14.6066 4.69676C14.6066 4.82222 14.5048 4.92404 14.3794 4.92404C13.5753 4.92404 13.1816 5.13222 12.7653 5.35222C12.3816 5.55495 11.9848 5.76449 11.2962 5.81904C11.1848 5.82813 11.0666 5.83313 10.9389 5.83313Z" fill="black"/>
<path d="M4.0542 6.25516C3.81011 6.25516 3.56966 6.16562 3.38784 5.9838C3.01238 5.60744 3.02875 4.97925 3.42466 4.58335L6.46693 1.54107C6.55556 1.45244 6.69966 1.45244 6.78829 1.54107C6.87693 1.62971 6.87693 1.7738 6.78829 1.86244L3.74602 4.90471C3.52738 5.12335 3.51056 5.46335 3.7092 5.66244C3.90829 5.86107 4.24875 5.8438 4.46693 5.62562L6.44511 3.64744C6.53375 3.5588 6.67784 3.5588 6.76647 3.64744C6.85511 3.73607 6.85511 3.88016 6.76647 3.9688L4.78829 5.94698C4.58375 6.15198 4.31647 6.25516 4.0542 6.25516Z" fill="black"/>
<path d="M6.62938 1.92864L5.86438 1.92818C5.31801 1.92818 4.87256 1.49591 4.87256 0.964091C4.87256 0.432273 5.44665 0 6.15165 0H8.90802C9.03347 0 9.13529 0.101818 9.13529 0.227273C9.13529 0.352727 9.03347 0.454545 8.90802 0.454545H6.15165C5.7121 0.454545 5.3271 0.692273 5.3271 0.964091C5.3271 1.245 5.56801 1.47364 5.86483 1.47364L6.62938 1.47409C6.75483 1.47409 6.85665 1.57591 6.85665 1.70136C6.85665 1.82682 6.75529 1.92864 6.62938 1.92864Z" fill="black"/>
<path d="M4.75837 7.63875C4.51428 7.63875 4.27382 7.5492 4.09201 7.36738C3.7161 6.99147 3.73246 6.36283 4.12837 5.96647L6.55382 3.54101C6.64246 3.45238 6.78655 3.45238 6.87519 3.54101C6.96382 3.62965 6.96382 3.77374 6.87519 3.86238L4.44973 6.28783C4.2311 6.50693 4.21428 6.84693 4.41337 7.04602C4.61246 7.24511 4.95291 7.22738 5.1711 7.0092L7.59655 4.58374C7.68519 4.4951 7.82928 4.4951 7.91791 4.58374C8.00655 4.67238 8.00655 4.81647 7.91791 4.90511L5.49246 7.33056C5.28791 7.53556 5.02064 7.63875 4.75837 7.63875Z" fill="black"/>
<path d="M6.1396 8.34008C5.89505 8.34008 5.6546 8.25008 5.47278 8.06826C5.09687 7.69235 5.11323 7.06417 5.5096 6.66826L7.59414 4.58372C7.68278 4.49508 7.82687 4.49508 7.91551 4.58372C8.00414 4.67235 8.00414 4.81644 7.91551 4.90508L5.83096 6.98962C5.61232 7.20826 5.59551 7.54826 5.79414 7.7469C5.99323 7.94599 6.33369 7.92872 6.55187 7.71053L8.63642 5.62599C8.72505 5.53735 8.86914 5.53735 8.95778 5.62599C9.04642 5.71463 9.04642 5.85872 8.95778 5.94735L6.87323 8.0319C6.66869 8.23644 6.40142 8.34008 6.1396 8.34008Z" fill="black"/>
<path d="M7.69355 8.87066C7.43855 8.87066 7.20355 8.77521 7.02764 8.5993C6.65173 8.22339 6.6681 7.59521 7.06446 7.1993L8.63764 5.62611C8.72628 5.53748 8.87037 5.53748 8.95901 5.62611C9.04764 5.71475 9.04764 5.85884 8.95901 5.94748L7.38582 7.52066C7.16719 7.7393 7.15037 8.0793 7.34901 8.27794C7.5481 8.47703 7.88855 8.45975 8.10673 8.24157L10.8736 5.47475C10.9622 5.38611 11.1063 5.38611 11.1949 5.47475C11.2836 5.56339 11.2836 5.70748 11.1949 5.79611L8.4281 8.56294C8.23901 8.75203 7.99037 8.86112 7.7281 8.87021C7.71673 8.87067 7.70492 8.87066 7.69355 8.87066Z" fill="black"/>
<path d="M10.928 5.96953C10.8698 5.96953 10.8116 5.94726 10.7671 5.90317C10.6784 5.81453 10.6784 5.67044 10.7671 5.5818L11.7707 4.57817C12.0921 4.2568 12.0921 3.73408 11.7707 3.41226L8.75479 0.39635C8.66615 0.307714 8.66297 0.159986 8.75115 0.07135C8.83979 -0.0163772 8.9807 -0.0200136 9.06933 0.0681682L12.0916 3.09044C12.5902 3.58953 12.5902 4.40089 12.0916 4.89908L11.088 5.90271C11.0443 5.94726 10.9862 5.96953 10.928 5.96953Z" fill="black"/>
</svg>
