<svg width="15" height="15" viewBox="0 0 15 15" fill="none" xmlns="http://www.w3.org/2000/svg">
<path d="M7.5 0C3.3645 0 0 3.3645 0 7.5C0 11.6355 3.3645 15 7.5 15C11.6355 15 15 11.6355 15 7.5C15 3.3645 11.6355 0 7.5 0ZM7.5 14.5C3.64025 14.5 0.5 11.3597 0.5 7.5C0.5 3.64025 3.64025 0.5 7.5 0.5C11.3597 0.5 14.5 3.64025 14.5 7.5C14.5 11.3597 11.3597 14.5 7.5 14.5Z" fill="black"/>
<path d="M7.50002 1.5C7.36202 1.5 7.25002 1.61175 7.25002 1.75V7.5H3.50002C3.36202 7.5 3.25002 7.61175 3.25002 7.75C3.25002 7.88825 3.36202 8 3.50002 8H7.50002C7.63802 8 7.75002 7.88825 7.75002 7.75V1.75C7.75002 1.61175 7.63802 1.5 7.50002 1.5Z" fill="black"/>
</svg>
