<svg width="7" height="12" viewBox="0 0 7 12" fill="none" xmlns="http://www.w3.org/2000/svg">
<path d="M0.193548 6.3912H1.50894V11.8065C1.50894 11.9134 1.59557 12 1.70249 12H3.93279C4.0397 12 4.12634 11.9134 4.12634 11.8065V6.41671H5.63849C5.73681 6.41671 5.81954 6.34293 5.83076 6.24526L6.06043 4.25164C6.06674 4.19679 6.04935 4.14186 6.01266 4.10071C5.97592 4.05952 5.92336 4.03595 5.86819 4.03595H4.12641V2.78625C4.12641 2.40952 4.32925 2.21849 4.72935 2.21849C4.78637 2.21849 5.86819 2.21849 5.86819 2.21849C5.97511 2.21849 6.06174 2.13182 6.06174 2.02494V0.194981C6.06174 0.0880645 5.97511 0.00143226 5.86819 0.00143226H4.29871C4.28764 0.000890323 4.26306 0 4.22683 0C3.9545 0 3.00794 0.053458 2.26022 0.741329C1.43175 1.5036 1.54692 2.4163 1.57444 2.57454V4.03591H0.193548C0.0866323 4.03591 0 4.12254 0 4.22946V6.19761C0 6.30453 0.0866323 6.3912 0.193548 6.3912Z" fill="black"/>
</svg>
