<svg width="20" height="18" viewBox="0 0 20 18" fill="none" xmlns="http://www.w3.org/2000/svg">
<path d="M19.1212 5.31145C18.8362 2.22806 16.6618 0 13.9386 0C12.1231 0 10.4554 0.982038 9.52651 2.54485C8.59765 0.960919 7.00382 0 5.20944 0C2.4862 0 0.311834 2.22806 0.0373994 5.31145C0.00573388 5.44873 -0.0787076 6.16678 0.195727 7.32833C0.596824 9.00729 1.50457 10.5384 2.84508 11.7528L9.51595 17.814L16.3029 11.7528C17.6434 10.5384 18.5617 9.00729 18.9523 7.32833C19.2267 6.16678 19.1423 5.44873 19.1212 5.31145ZM18.2345 7.15937C17.8757 8.70107 17.0312 10.0949 15.8068 11.2037L9.51595 16.8214L3.33062 11.2142C2.10622 10.1055 1.2618 8.70107 0.902924 7.16993C0.6496 6.05062 0.755152 5.42761 0.755152 5.42761L0.765707 5.38537C1.00848 2.69268 2.87674 0.728609 5.21999 0.728609C6.95104 0.728609 8.46043 1.78456 9.18874 3.49521L9.52651 4.29774L9.86427 3.49521C10.5715 1.81624 12.1759 0.728609 13.9386 0.728609C16.2818 0.728609 18.1501 2.68213 18.3929 5.41705C18.3929 5.42761 18.4984 6.06118 18.2345 7.15937Z" fill="white"/>
</svg>
