<svg width="12" height="12" viewBox="0 0 12 12" fill="none" xmlns="http://www.w3.org/2000/svg">
<path d="M1.5408 0H10.4599C11.3073 0 12 0.693015 12 1.54044V10.4603C12 11.3075 11.3073 12 10.4599 12H1.5408C0.69344 12 0 11.3074 0 10.4603V1.54044C0 0.693015 0.69344 0 1.5408 0ZM8.74184 1.33279C8.44432 1.33279 8.20164 1.57645 8.20164 1.87383V3.16649C8.20164 3.464 8.44432 3.7071 8.74184 3.7071H10.098C10.395 3.7071 10.6382 3.464 10.6382 3.16649V1.87383C10.6382 1.57645 10.395 1.33279 10.098 1.33279H8.74184ZM10.6434 5.07465H9.58752C9.68764 5.40167 9.74192 5.74654 9.74192 6.10509C9.74192 8.10053 8.07128 9.71898 6.01128 9.71898C3.9518 9.71898 2.28112 8.10053 2.28112 6.10509C2.28112 5.74654 2.33592 5.40167 2.43556 5.07465H1.334V10.1443C1.334 10.4069 1.54836 10.6205 1.81064 10.6205H10.1669C10.4294 10.6205 10.6434 10.4069 10.6434 10.1443V5.07465ZM6.01132 3.63893C4.68092 3.63893 3.60172 4.68413 3.60172 5.97464C3.60172 7.26382 4.68092 8.30982 6.01132 8.30982C7.34244 8.30982 8.42168 7.26382 8.42168 5.97464C8.42168 4.68409 7.34244 3.63893 6.01132 3.63893Z" fill="black"/>
</svg>
