<svg width="106" height="28" viewBox="0 0 106 28" fill="none" xmlns="http://www.w3.org/2000/svg">
<path d="M16.26 7.488C16.26 4.14 14.244 1.26 8.412 1.26H0.744C0.6 1.26 0.492 1.332 0.492 1.476V26.784C0.492 26.928 0.6 27 0.744 27H8.412C14.172 27 17.304 24.372 17.304 19.872C17.304 16.272 15.432 13.86 11.976 13.176C14.604 12.42 16.26 10.404 16.26 7.488ZM1.716 25.884V13.752H9.06C13.956 13.752 16.116 16.2 16.116 19.872C16.116 23.652 13.56 25.884 8.412 25.884H1.716ZM15.036 7.488C15.036 10.764 12.804 12.636 9.06 12.636H1.716V2.376H8.412C13.56 2.376 15.036 4.824 15.036 7.488ZM40.2762 18.324V1.476C40.2762 1.332 40.1682 1.26 40.0242 1.26H39.2682C39.1242 1.26 39.0522 1.332 39.0522 1.476V18.288C39.0522 23.04 36.3522 26.172 31.4202 26.172C26.4882 26.172 23.8242 23.04 23.8242 18.288V1.476C23.8242 1.332 23.7522 1.26 23.6082 1.26H22.8522C22.7082 1.26 22.6002 1.332 22.6002 1.476V18.324C22.6002 23.652 25.8402 27.288 31.4202 27.288C37.0362 27.288 40.2762 23.652 40.2762 18.324ZM63.9949 27C64.1749 27 64.2109 26.856 64.1389 26.712L55.8229 16.02C60.7909 15.768 63.7429 13.068 63.7429 8.676C63.7429 3.996 60.4669 1.26 55.1749 1.26H47.2909C47.1469 1.26 47.0389 1.332 47.0389 1.476V26.784C47.0389 26.928 47.1469 27 47.2909 27H48.0469C48.1549 27 48.2629 26.928 48.2629 26.784V16.056H54.4189L62.7349 26.856C62.7709 26.964 62.9149 27 63.0229 27H63.9949ZM55.1749 2.376C59.8189 2.376 62.5549 4.644 62.5549 8.676C62.5549 12.744 59.8189 14.94 55.1749 14.94H48.2629V2.376H55.1749ZM85.4568 20.556C85.4568 16.704 83.0088 14.796 76.6368 13.284C71.6328 12.096 69.0768 10.476 69.0768 7.2C69.0768 3.636 72.3888 2.016 76.1688 2.016C79.1928 2.052 81.8208 2.916 84.0528 4.716C84.1608 4.788 84.2688 4.788 84.3768 4.644L84.7368 4.068C84.8088 3.996 84.8448 3.852 84.7008 3.78C82.2888 1.872 79.6968 0.899999 76.3128 0.899999C71.7408 0.899999 67.8528 2.844 67.8528 7.128C67.8528 11.052 70.8768 13.176 76.3848 14.436C82.1808 15.768 84.2328 17.28 84.2328 20.556C84.2328 24.336 81.1008 26.208 76.6368 26.208C73.4688 26.208 71.0928 25.2 68.5008 23.04C68.3928 22.968 68.2848 23.004 68.1768 23.112L67.7448 23.652C67.6728 23.76 67.6728 23.868 67.7808 23.976C70.5528 26.316 73.0368 27.36 76.6368 27.36C81.8928 27.36 85.4568 24.948 85.4568 20.556ZM87.5074 1.26C87.3634 1.26 87.2914 1.332 87.2914 1.476V2.16C87.2914 2.304 87.3634 2.376 87.5074 2.376H95.7874V26.784C95.7874 26.928 95.8954 27 96.0394 27H96.7954C96.9034 27 97.0114 26.928 97.0114 26.784V2.376H105.399C105.543 2.376 105.651 2.304 105.651 2.16V1.476C105.651 1.332 105.543 1.26 105.399 1.26H87.5074Z" fill="white"/>
</svg>
