<svg width="15" height="15" viewBox="0 0 15 15" fill="none" xmlns="http://www.w3.org/2000/svg">
<path d="M15 14.1873L11.4448 10.6321C12.3876 9.50679 12.9567 8.05788 12.9567 6.47834C12.9567 2.90617 10.0505 0 6.47834 0C2.90617 0 0 2.90617 0 6.47834C0 10.0505 2.90617 12.9567 6.47834 12.9567C8.05788 12.9567 9.50649 12.3876 10.6321 11.4448L14.1873 15L15 14.1873ZM6.47834 11.7926C3.54801 11.7926 1.16408 9.40867 1.16408 6.47834C1.16408 3.54801 3.54831 1.16438 6.47834 1.16438C9.40837 1.16438 11.7926 3.54831 11.7926 6.47864C11.7926 9.40896 9.40867 11.7926 6.47834 11.7926Z" fill="white"/>
</svg>
