<svg width="15" height="13" viewBox="0 0 15 13" fill="none" xmlns="http://www.w3.org/2000/svg">
<path d="M4.5 2H1V12H14V10V9.5" stroke="black" stroke-width="0.5"/>
<path d="M15 4.99733L10.4411 0V2.99347H9.91151C8.59964 2.99347 7.36623 3.50418 6.43856 4.43153C5.51089 5.35889 5 6.59187 5 7.90337V10L5.87493 9.04167C7.0453 7.75986 8.70664 7.01836 10.4411 7.0015V9.99474L15 4.99733ZM5.58622 8.4935V7.90337C5.58622 6.74843 6.03612 5.66254 6.85305 4.84589C7.66998 4.02924 8.75617 3.57948 9.91151 3.57948H11.0272V1.51222L14.2067 4.99733L11.0272 8.48251V6.41525H10.5013C8.651 6.41525 6.87168 7.17018 5.58622 8.4935Z" fill="black"/>
</svg>
