<svg width="15" height="16" viewBox="0 0 15 16" fill="none" xmlns="http://www.w3.org/2000/svg">
<path d="M11.665 11.2086C10.8532 10.8378 9.99308 10.8953 8.99484 10.9623C8.15813 11.0174 7.04697 11.0275 6.11215 10.9818C4.90911 10.9238 3.86996 10.8734 3.0374 11.3076C0.10018 12.8432 0.0029639 15.7113 0 15.8326L1.2155 15.8598C1.21609 15.8373 1.29196 13.5916 3.60025 12.3855C4.14146 12.1031 5.02766 12.147 6.05376 12.1956C7.03482 12.2436 8.19933 12.2347 9.07635 12.1748C9.97678 12.1138 10.6265 12.0711 11.1594 12.3138C13.7267 13.4872 13.7833 15.7537 13.7845 15.8462H15C14.9997 15.719 14.9618 12.7148 11.665 11.2086Z" fill="white"/>
<path d="M7.49972 9.5728C10.1391 9.5728 12.2861 7.42546 12.2861 4.7864C12.2861 2.14705 10.1388 0 7.49972 0C4.86037 0 2.71332 2.14735 2.71332 4.7864C2.71302 7.42575 4.86037 9.5728 7.49972 9.5728ZM7.49972 1.2155C9.46894 1.2155 11.0706 2.81719 11.0706 4.7864C11.0706 6.75562 9.46894 8.35731 7.49972 8.35731C5.5305 8.35731 3.92881 6.75562 3.92881 4.7864C3.92852 2.81719 5.5305 1.2155 7.49972 1.2155Z" fill="white"/>
</svg>
