<svg width="22" height="12" viewBox="0 0 22 12" fill="none" xmlns="http://www.w3.org/2000/svg">
<path fill-rule="evenodd" clip-rule="evenodd" d="M18.2498 7.63015C18.9532 8.31689 19.6956 8.96301 20.3264 9.719C20.6051 10.0549 20.869 10.4016 21.0708 10.7915C21.3568 11.3457 21.0978 11.9556 20.6008 11.9887L17.5116 11.9873C16.7149 12.0534 16.0793 11.7327 15.5448 11.1879C15.1171 10.7523 14.7211 10.2886 14.3098 9.83828C14.1412 9.65421 13.9647 9.48101 13.7539 9.3441C13.3322 9.07037 12.9661 9.15418 12.7251 9.59401C12.4797 10.0414 12.424 10.5367 12.3999 11.0353C12.3668 11.7627 12.1469 11.954 11.4162 11.9873C9.85465 12.0609 8.37263 11.8246 6.99588 11.0369C5.78208 10.3424 4.84084 9.36201 4.02158 8.25209C2.42648 6.09085 1.20496 3.716 0.107092 1.27462C-0.140029 0.724571 0.0406958 0.429308 0.647593 0.418858C1.65537 0.39928 2.66301 0.400674 3.67198 0.417464C4.08157 0.423456 4.35273 0.658384 4.51088 1.04533C5.05612 2.386 5.72328 3.66152 6.56072 4.84382C6.78373 5.15859 7.01113 5.47336 7.33496 5.69492C7.6932 5.94022 7.96596 5.85892 8.1345 5.45985C8.24144 5.20681 8.28826 4.93426 8.31236 4.66324C8.39221 3.73084 8.40273 2.80005 8.26269 1.87093C8.17672 1.29106 7.8501 0.915676 7.27149 0.805946C6.97623 0.75 7.02019 0.640131 7.16315 0.471598C7.41146 0.180934 7.64499 0 8.11053 0H11.6018C12.1514 0.108477 12.2735 0.355388 12.3487 0.908431L12.3517 4.78649C12.3457 5.00058 12.4586 5.6359 12.8443 5.77761C13.1529 5.8785 13.3563 5.63159 13.5415 5.43588C14.3774 4.5487 14.974 3.50023 15.507 2.41456C15.7435 1.93718 15.9469 1.44141 16.144 0.946053C16.29 0.578472 16.5192 0.397608 16.9332 0.40562L20.2933 0.408616C20.393 0.408616 20.4938 0.410079 20.5903 0.426591C21.1565 0.523084 21.3116 0.766652 21.1368 1.31955C20.8612 2.18702 20.3251 2.90992 19.8009 3.63616C19.2406 4.41152 18.6413 5.16034 18.0856 5.94029C17.575 6.65253 17.6156 7.01154 18.2498 7.63015Z" fill="black"/>
</svg>
